<?xml version="1.0" encoding="UTF-8"?>
<svg xmlns="http://www.w3.org/2000/svg" xmlns:xlink="http://www.w3.org/1999/xlink" width="150px" height="150px" viewBox="0 0 150 150" version="1.1">
<g id="surface1">
<path style=" stroke:none;fill-rule:nonzero;fill:rgb(0%,58.823529%,53.333333%);fill-opacity:1;" d="M 79.242188 0.0820312 C 79.195312 0.117188 79.160156 1.183594 79.160156 2.449219 C 79.148438 5.003906 79.078125 5.390625 78.339844 6.597656 C 77.917969 7.300781 77.71875 7.535156 74.109375 11.554688 C 69.386719 16.839844 65.964844 20.90625 63.574219 24.082031 C 58.582031 30.726562 54.867188 34.96875 48.761719 41.074219 C 44.742188 45.09375 42 47.613281 39.082031 49.980469 C 38.214844 50.695312 36.773438 51.890625 35.882812 52.652344 C 34.992188 53.402344 34.101562 54.105469 33.902344 54.210938 C 33.5625 54.386719 33.398438 54.386719 31.769531 54.199219 C 24.632812 53.402344 22.101562 53.039062 19.207031 52.441406 C 18.972656 52.382812 18.808594 52.417969 18.714844 52.523438 C 18.609375 52.664062 18.84375 52.863281 20.003906 53.613281 C 22.054688 54.9375 23.882812 55.652344 25.207031 55.664062 C 25.40625 55.664062 25.652344 55.746094 25.734375 55.863281 C 25.828125 55.96875 26.414062 56.460938 27.035156 56.976562 C 27.65625 57.480469 28.195312 57.9375 28.230469 57.996094 C 28.265625 58.054688 27.984375 58.453125 27.585938 58.886719 C 27.199219 59.320312 26.90625 59.695312 26.929688 59.730469 C 26.964844 59.753906 27.363281 59.589844 27.820312 59.367188 C 28.277344 59.132812 28.816406 58.945312 29.039062 58.945312 C 29.4375 58.945312 29.34375 58.886719 33.667969 62.179688 C 35.355469 63.46875 35.871094 63.691406 37.148438 63.679688 C 38.15625 63.667969 39.105469 63.410156 41.824219 62.378906 C 42.585938 62.085938 43.242188 61.898438 43.289062 61.957031 C 44.765625 64.054688 45.75 65.695312 46.722656 67.675781 C 48.867188 72.058594 49.101562 75.09375 47.402344 76.6875 C 47.085938 76.980469 46.640625 77.308594 46.417969 77.425781 C 46.066406 77.589844 45.316406 78.46875 45.433594 78.574219 C 45.457031 78.585938 46.183594 78.164062 47.0625 77.636719 C 47.941406 77.109375 49.078125 76.5 49.582031 76.277344 L 50.507812 75.878906 L 53.4375 75.890625 C 58.921875 75.914062 63.5625 76.664062 68.355469 78.292969 C 70.066406 78.878906 72.902344 80.097656 73.019531 80.296875 C 73.066406 80.355469 72.9375 80.578125 72.738281 80.777344 C 72.1875 81.363281 70.171875 83.941406 69.011719 85.546875 C 65.039062 91.03125 61.933594 96.539062 59.882812 101.71875 C 58.828125 104.378906 56.941406 107.085938 54.316406 109.6875 C 51.480469 112.5 48.1875 114.457031 45.035156 115.183594 C 42.855469 115.699219 39.679688 115.699219 37.207031 115.195312 C 33.164062 114.375 29.589844 112.347656 26.976562 109.394531 C 22.699219 104.566406 20.472656 97.171875 20.425781 87.691406 L 20.414062 85.019531 L 20.894531 83.203125 C 22.136719 78.421875 23.683594 74.707031 25.640625 71.765625 C 26.566406 70.371094 28.171875 68.613281 29.285156 67.769531 C 30.046875 67.207031 31.5 66.445312 31.839844 66.445312 C 32.109375 66.445312 32.285156 66.09375 32.285156 65.53125 C 32.285156 64.617188 31.652344 64.5 29.917969 65.074219 C 21.164062 68.003906 15.914062 77.484375 14.589844 92.71875 C 14.4375 94.371094 14.519531 95.589844 15 98.976562 C 16.417969 108.855469 19.734375 116.4375 24.960938 121.699219 C 29.074219 125.847656 34.253906 128.390625 40.6875 129.445312 C 43.101562 129.832031 48.304688 129.796875 50.566406 129.363281 C 51.492188 129.1875 54.503906 128.15625 55.757812 127.59375 C 61.464844 125.027344 66.902344 120.691406 71.835938 114.785156 C 72.855469 113.578125 74.765625 111.082031 75.222656 110.355469 C 75.339844 110.179688 75.527344 110.039062 75.632812 110.039062 C 75.738281 110.039062 76.347656 110.34375 76.992188 110.707031 L 78.164062 111.386719 L 78.679688 112.394531 L 79.207031 113.402344 L 78.667969 114.023438 C 77.953125 114.84375 77.566406 115.570312 77.273438 116.683594 C 77.0625 117.457031 77.015625 117.984375 76.992188 120 C 76.96875 122.460938 76.875 123.175781 76.464844 123.984375 C 76.125 124.640625 75.667969 125.015625 74.976562 125.226562 C 73.230469 125.742188 72.960938 126.644531 73.898438 128.859375 C 74.847656 131.121094 75.152344 132.609375 75.234375 135.539062 C 75.304688 138.046875 75.574219 139.734375 75.960938 140.050781 C 76.066406 140.144531 76.113281 140.472656 76.113281 141.035156 C 76.113281 141.984375 76.335938 142.875 76.675781 143.25 C 76.910156 143.507812 77.285156 144.820312 77.285156 145.394531 C 77.285156 145.570312 77.332031 145.792969 77.390625 145.886719 C 77.472656 146.015625 77.53125 145.933594 77.625 145.59375 C 77.800781 144.925781 77.988281 143.707031 78.011719 142.992188 L 78.046875 142.371094 L 78.84375 142.992188 C 79.863281 143.800781 80.519531 144.832031 80.332031 145.347656 C 80.121094 145.96875 80.191406 146.71875 80.507812 147.257812 C 80.753906 147.667969 80.789062 147.84375 80.730469 148.324219 C 80.683594 148.628906 80.542969 149.109375 80.414062 149.378906 C 80.144531 149.941406 80.214844 150.140625 80.566406 149.824219 C 81.070312 149.367188 81.398438 148.382812 81.914062 145.875 C 82.523438 142.910156 82.546875 143.074219 81.09375 141.621094 C 79.5 140.027344 79.277344 139.640625 78.855469 137.8125 C 78.703125 137.132812 78.679688 136.382812 78.714844 133.511719 L 78.75 130.019531 L 79.324219 128.613281 C 79.96875 127.007812 80.871094 125.214844 81.621094 124.089844 L 82.125 123.304688 L 82.722656 123.480469 C 83.507812 123.703125 85.570312 124.6875 86.53125 125.296875 C 86.953125 125.554688 87.84375 126.1875 88.5 126.691406 C 89.660156 127.59375 89.71875 127.617188 90.339844 127.617188 C 90.703125 127.617188 91.371094 127.546875 91.839844 127.476562 C 92.507812 127.359375 92.683594 127.359375 92.730469 127.476562 C 92.789062 127.664062 93.375 127.96875 93.667969 127.96875 C 93.785156 127.96875 93.984375 128.074219 94.101562 128.203125 C 94.394531 128.53125 95.097656 128.953125 95.179688 128.859375 C 95.296875 128.753906 94.96875 127.875 94.605469 127.300781 C 94.429688 127.019531 94.277344 126.714844 94.277344 126.621094 C 94.277344 126.527344 94.148438 126.363281 93.984375 126.257812 C 93.820312 126.152344 93.691406 126.011719 93.691406 125.953125 C 93.691406 125.789062 94.652344 124.453125 94.992188 124.148438 C 95.144531 124.007812 95.460938 123.867188 95.683594 123.832031 C 96.035156 123.785156 96.152344 123.832031 96.480469 124.171875 C 96.773438 124.476562 96.960938 124.570312 97.277344 124.570312 C 97.640625 124.570312 97.816406 124.6875 98.507812 125.355469 C 99.246094 126.070312 99.316406 126.105469 99.316406 125.835938 C 99.316406 125.0625 98.730469 124.03125 97.605469 122.8125 C 97.21875 122.402344 97.019531 122.109375 97.125 122.109375 C 97.21875 122.109375 97.359375 122.027344 97.441406 121.933594 C 97.570312 121.78125 97.628906 121.804688 97.875 122.167969 C 98.261719 122.742188 98.496094 122.835938 99.375 122.742188 C 100.113281 122.660156 100.160156 122.671875 100.5 123 C 100.699219 123.1875 100.992188 123.5625 101.15625 123.84375 C 101.566406 124.535156 101.742188 124.3125 101.425781 123.492188 C 101.050781 122.472656 100.40625 121.640625 99.550781 121.089844 C 99.140625 120.808594 98.695312 120.457031 98.554688 120.292969 C 98.332031 120 98.25 119.988281 97.136719 119.964844 L 95.941406 119.941406 L 95.34375 120.503906 C 94.898438 120.925781 94.675781 121.054688 94.535156 120.984375 C 94.429688 120.9375 93.890625 120.855469 93.351562 120.808594 C 92.8125 120.75 92.109375 120.621094 91.804688 120.527344 C 91.488281 120.421875 90.914062 120.292969 90.527344 120.234375 C 89.707031 120.117188 86.554688 118.628906 85.804688 118.007812 L 85.359375 117.632812 L 85.910156 116.613281 C 86.707031 115.136719 87.84375 113.425781 88.558594 112.652344 C 88.910156 112.277344 89.4375 111.574219 89.742188 111.082031 C 90.515625 109.828125 90.503906 109.640625 89.460938 107.8125 C 86.636719 102.832031 86.203125 101.390625 86.332031 97.242188 L 86.367188 95.882812 L 88.207031 94.007812 L 90.035156 92.132812 L 91.476562 91.945312 C 93.925781 91.617188 96.492188 91.171875 97.289062 90.925781 L 98.050781 90.691406 L 100.242188 92.097656 C 103.160156 93.960938 105.011719 95.074219 106.160156 95.648438 C 107.015625 96.082031 107.191406 96.128906 107.976562 96.128906 C 108.808594 96.128906 108.84375 96.140625 109.054688 96.492188 C 109.171875 96.691406 109.3125 97.042969 109.347656 97.265625 C 109.382812 97.488281 109.546875 97.804688 109.710938 97.96875 C 109.863281 98.132812 110.214844 98.625 110.484375 99.070312 C 110.753906 99.515625 111.046875 99.902344 111.128906 99.9375 C 111.480469 100.054688 111.105469 97.699219 110.578125 96.539062 C 110.378906 96.105469 110.214844 95.71875 110.214844 95.683594 C 110.214844 95.648438 110.390625 95.625 110.601562 95.625 C 111.117188 95.625 112.21875 95.332031 112.78125 95.039062 L 113.238281 94.816406 L 113.308594 95.167969 C 113.34375 95.355469 113.578125 95.71875 113.824219 95.953125 C 114.152344 96.269531 114.328125 96.585938 114.445312 97.007812 C 114.621094 97.734375 114.820312 97.734375 114.914062 97.019531 L 114.972656 96.503906 L 115.125 96.855469 C 115.207031 97.042969 115.300781 97.59375 115.335938 98.050781 C 115.371094 98.519531 115.453125 98.90625 115.5 98.90625 C 115.910156 98.90625 115.96875 96.761719 115.605469 95.402344 C 115.359375 94.464844 115.289062 93.457031 115.488281 93.574219 C 115.558594 93.609375 115.605469 93.796875 115.605469 93.984375 C 115.605469 94.5 115.710938 94.664062 116.238281 95.027344 C 116.753906 95.390625 117.011719 96 117.011719 96.855469 C 117.011719 97.277344 117.164062 97.40625 117.292969 97.078125 C 117.328125 96.972656 117.363281 96.492188 117.363281 96 C 117.363281 95.261719 117.28125 94.863281 116.917969 93.808594 L 116.472656 92.519531 L 115.652344 92.085938 C 115.207031 91.839844 114.761719 91.640625 114.65625 91.640625 C 114.5625 91.640625 114.351562 91.769531 114.199219 91.933594 C 114 92.144531 113.800781 92.226562 113.496094 92.226562 C 113.261719 92.226562 112.523438 92.308594 111.84375 92.414062 C 110.460938 92.625 108.023438 92.542969 107.25 92.273438 C 106.652344 92.0625 105.960938 91.511719 105.386719 90.785156 C 105.046875 90.339844 104.964844 90.175781 105.082031 90.105469 C 105.363281 89.929688 105.832031 90 106.40625 90.304688 C 107.144531 90.691406 109.160156 91.113281 109.160156 90.878906 C 109.160156 90.832031 109.054688 90.609375 108.914062 90.398438 C 108.65625 89.964844 106.664062 88.476562 106.359375 88.476562 C 106.253906 88.476562 106.40625 88.242188 106.78125 87.855469 C 107.109375 87.527344 107.460938 87.070312 107.578125 86.859375 C 107.765625 86.484375 107.789062 86.472656 108.257812 86.554688 C 108.632812 86.613281 108.867188 86.753906 109.230469 87.152344 C 109.570312 87.515625 109.804688 87.667969 109.992188 87.65625 C 110.496094 87.609375 110.578125 87.65625 111.28125 88.324219 C 111.949219 88.957031 111.972656 88.96875 111.972656 88.664062 C 111.972656 88.242188 111.375 87.09375 110.765625 86.34375 C 110.484375 85.992188 110.214844 85.582031 110.179688 85.429688 C 110.132812 85.265625 109.921875 84.855469 109.6875 84.515625 C 109.464844 84.164062 109.277344 83.859375 109.277344 83.824219 C 109.277344 83.800781 109.394531 83.789062 109.535156 83.8125 C 109.6875 83.835938 109.886719 84.035156 110.039062 84.304688 C 110.355469 84.878906 110.742188 85.089844 111.28125 85.007812 C 111.878906 84.925781 112.371094 85.347656 112.640625 86.203125 C 112.746094 86.554688 112.875 86.835938 112.933594 86.835938 C 113.085938 86.835938 113.039062 85.863281 112.851562 85.230469 C 112.734375 84.832031 112.464844 84.410156 112.054688 83.953125 C 111.726562 83.566406 111.246094 82.980469 111 82.652344 C 110.496094 81.960938 110.273438 81.867188 108.785156 81.75 C 107.941406 81.679688 107.882812 81.691406 107.671875 81.949219 C 107.472656 82.207031 107.390625 82.230469 106.792969 82.171875 C 106.195312 82.125 106.078125 82.160156 105.761719 82.417969 C 105.574219 82.582031 105.292969 82.757812 105.152344 82.792969 C 105 82.839844 104.625 83.144531 104.296875 83.484375 C 103.535156 84.269531 102.585938 84.738281 101.636719 84.808594 L 100.898438 84.867188 L 100.054688 83.765625 C 99.597656 83.167969 99.058594 82.523438 98.871094 82.347656 C 98.554688 82.042969 98.542969 81.996094 98.660156 81.527344 C 98.730469 81.234375 99.046875 80.707031 99.386719 80.273438 C 100.6875 78.644531 101.25 77.332031 101.484375 75.433594 C 101.578125 74.707031 101.707031 73.875 101.765625 73.59375 C 101.835938 73.300781 101.894531 72.820312 101.894531 72.527344 C 101.894531 72.082031 102 71.8125 102.515625 71.003906 C 105.328125 66.515625 109.207031 63.09375 112.382812 62.285156 C 113.882812 61.910156 115.558594 62.121094 117 62.871094 C 118.875 63.855469 120.726562 66.199219 120.164062 66.867188 C 120.035156 67.019531 119.847656 67.03125 119.039062 66.972656 L 118.066406 66.890625 L 118.066406 67.207031 C 118.066406 67.382812 118.3125 68.132812 118.605469 68.882812 C 119.15625 70.265625 119.660156 72.035156 119.542969 72.152344 C 119.449219 72.246094 118.675781 71.742188 118.476562 71.449219 L 118.300781 71.203125 L 118.300781 71.484375 C 118.3125 71.917969 118.6875 72.691406 119.179688 73.230469 C 119.660156 73.757812 119.695312 73.863281 120.011719 76.195312 C 120.164062 77.25 120.222656 78.480469 120.222656 80.800781 L 120.234375 83.964844 L 119.859375 84.773438 C 119.648438 85.207031 119.472656 85.640625 119.472656 85.722656 C 119.472656 85.816406 119.683594 85.910156 119.976562 85.957031 C 120.609375 86.0625 121.054688 86.296875 121.6875 86.847656 C 122.449219 87.527344 122.753906 87.480469 123.292969 86.601562 C 123.527344 86.214844 123.773438 85.898438 123.832031 85.898438 C 123.890625 85.898438 123.914062 85.792969 123.867188 85.664062 C 123.808594 85.488281 123.867188 85.417969 124.113281 85.359375 L 124.429688 85.277344 L 124.160156 85.078125 C 123.960938 84.925781 123.914062 84.808594 123.960938 84.585938 C 124.042969 84.28125 124.324219 84.140625 124.839844 84.140625 C 125.203125 84.140625 125.167969 84.023438 124.664062 83.601562 C 124.3125 83.296875 124.253906 83.191406 124.324219 82.933594 C 124.394531 82.640625 124.453125 82.617188 124.957031 82.617188 L 125.507812 82.617188 L 125.132812 82.3125 C 124.546875 81.867188 124.617188 81.316406 125.273438 81.164062 L 125.625 81.070312 L 125.355469 80.871094 C 125.144531 80.71875 125.097656 80.601562 125.15625 80.367188 C 125.273438 79.898438 125.53125 79.875 125.671875 80.308594 C 125.964844 81.210938 126.515625 83.707031 126.644531 84.667969 C 126.785156 85.839844 126.949219 86.15625 127.21875 85.828125 C 127.570312 85.40625 127.453125 83.332031 126.902344 80.273438 L 126.832031 79.863281 L 127.546875 79.898438 C 128.132812 79.933594 128.285156 79.992188 128.390625 80.191406 C 128.53125 80.449219 128.496094 80.496094 127.710938 81.070312 C 127.242188 81.410156 127.464844 81.5625 128.390625 81.5625 C 129.105469 81.5625 129.210938 81.585938 129.175781 81.761719 C 129.152344 81.878906 128.964844 82.078125 128.765625 82.21875 C 128.34375 82.5 128.378906 82.617188 128.847656 82.617188 C 129.421875 82.617188 129.902344 82.757812 129.902344 82.933594 C 129.902344 83.027344 129.773438 83.226562 129.609375 83.378906 L 129.328125 83.671875 L 129.808594 83.671875 C 130.21875 83.671875 130.277344 83.695312 130.21875 83.90625 C 130.171875 84.082031 130.21875 84.140625 130.394531 84.140625 C 130.523438 84.140625 130.863281 84.375 131.15625 84.667969 C 131.4375 84.960938 131.777344 85.195312 131.894531 85.195312 C 132.175781 85.195312 133.078125 84.046875 133.546875 83.085938 C 134.109375 81.960938 134.261719 79.757812 133.851562 78.75 C 133.792969 78.585938 133.699219 77.835938 133.652344 77.074219 C 133.59375 76.253906 133.5 75.632812 133.417969 75.527344 C 133.289062 75.375 133.3125 75.292969 133.570312 75.023438 C 134.003906 74.566406 134.121094 74.167969 134.203125 72.902344 C 134.25 71.988281 134.367188 71.460938 134.835938 70.078125 C 135.152344 69.140625 135.445312 68.039062 135.480469 67.617188 C 135.5625 66.773438 135.421875 66.75 135.175781 67.558594 C 134.988281 68.179688 134.589844 68.882812 134.390625 68.953125 C 134.296875 69 134.097656 68.742188 133.839844 68.226562 C 133.183594 66.902344 132.902344 65.824219 132.527344 63.164062 C 132.199219 60.820312 131.589844 58.851562 130.722656 57.328125 C 130.382812 56.753906 130.042969 56.578125 130.195312 57.070312 C 130.3125 57.421875 130.289062 59.894531 130.171875 60.011719 C 130.101562 60.082031 129.925781 59.941406 129.703125 59.625 C 129.257812 58.992188 127.640625 57.410156 126.5625 56.53125 C 125.238281 55.464844 122.789062 53.742188 121.535156 53.027344 C 120.890625 52.652344 119.847656 52.019531 119.203125 51.609375 C 117.832031 50.742188 117.433594 50.589844 115.488281 50.273438 C 114.679688 50.144531 113.613281 49.945312 113.121094 49.839844 C 112.359375 49.6875 112.054688 49.675781 111.152344 49.792969 C 109.980469 49.945312 107.894531 50.449219 106.382812 50.964844 C 105.84375 51.140625 105.421875 51.234375 105.445312 51.164062 C 105.480469 51.09375 105.996094 50.273438 106.605469 49.335938 C 107.214844 48.398438 108.023438 47.132812 108.410156 46.511719 L 109.101562 45.386719 L 109.96875 45.304688 C 110.449219 45.269531 111.210938 45.234375 111.667969 45.234375 C 112.523438 45.234375 112.746094 45.152344 113.378906 44.589844 C 113.601562 44.390625 113.871094 44.308594 114.550781 44.261719 C 115.03125 44.214844 115.746094 44.074219 116.132812 43.945312 C 116.519531 43.816406 118.792969 43.125 121.171875 42.410156 C 128.109375 40.347656 128.308594 40.265625 129.550781 39.140625 L 129.960938 38.777344 L 129.316406 38.824219 C 128.964844 38.859375 127.863281 39.152344 126.867188 39.492188 C 124.921875 40.148438 124.628906 40.160156 124.40625 39.574219 C 124.347656 39.421875 124.195312 37.933594 124.054688 36.257812 C 123.667969 31.40625 123.65625 30.773438 123.867188 29.648438 C 124.148438 28.101562 124.207031 27.574219 124.066406 27.492188 C 124.007812 27.457031 123.761719 27.679688 123.515625 27.984375 C 123.070312 28.570312 121.628906 29.859375 120.75 30.445312 C 120.105469 30.890625 116.625 34.347656 114.726562 36.445312 C 112.769531 38.601562 108.632812 42.421875 107.273438 43.324219 L 106.828125 43.617188 L 104.742188 43.511719 C 103.59375 43.441406 102.5625 43.359375 102.457031 43.300781 C 102.269531 43.230469 102.246094 43.300781 102.246094 43.980469 L 102.246094 44.742188 L 101.636719 45.28125 C 101.308594 45.574219 100.664062 45.984375 100.207031 46.195312 C 98.273438 47.097656 96.164062 48.175781 95.460938 48.632812 C 94.183594 49.464844 89.496094 51.726562 86.027344 53.203125 C 85.382812 53.472656 84.457031 53.777344 83.976562 53.859375 C 81.820312 54.269531 81.257812 54.515625 80.261719 55.453125 L 79.898438 55.792969 L 75.9375 55.605469 L 77.34375 54.480469 C 79.207031 52.992188 81.328125 51.433594 81.949219 51.082031 C 82.277344 50.90625 82.675781 50.507812 83.050781 50.003906 C 83.730469 49.054688 84.269531 48.761719 85.910156 48.398438 C 86.789062 48.210938 87 48.117188 87.257812 47.8125 C 87.585938 47.425781 87.785156 47.34375 90.058594 46.746094 C 91.59375 46.335938 93.269531 46.03125 93.515625 46.125 C 93.714844 46.207031 94.113281 46.007812 94.570312 45.585938 C 94.769531 45.410156 95.496094 44.964844 96.210938 44.589844 C 97.6875 43.828125 102.28125 41.074219 103.804688 40.054688 C 104.847656 39.351562 105.574219 38.578125 106.242188 37.441406 C 106.804688 36.46875 106.78125 36.46875 104.976562 37.347656 L 103.59375 38.015625 L 102.128906 38.015625 C 100.535156 38.027344 99.785156 37.863281 98.402344 37.253906 C 95.613281 36.011719 92.882812 33.070312 90.949219 29.214844 C 90.292969 27.902344 86.296875 18.972656 84.984375 15.878906 C 83.015625 11.238281 82.300781 9.152344 81.386719 5.472656 C 80.308594 1.089844 79.710938 -0.398438 79.242188 0.0820312 Z M 126.949219 76.3125 C 127.171875 76.535156 127.113281 76.839844 126.832031 76.910156 C 126.503906 77.003906 126.492188 76.980469 126.574219 76.546875 C 126.65625 76.136719 126.726562 76.089844 126.949219 76.3125 Z M 127.347656 77.507812 C 127.5 77.730469 127.453125 77.824219 127.089844 77.964844 C 126.621094 78.140625 126.644531 78.246094 127.195312 78.398438 C 127.828125 78.5625 127.910156 78.925781 127.40625 79.359375 C 127.195312 79.535156 126.972656 79.675781 126.902344 79.6875 C 126.761719 79.6875 126.328125 77.660156 126.421875 77.414062 C 126.480469 77.273438 126.597656 77.25 126.878906 77.308594 C 127.089844 77.34375 127.300781 77.4375 127.347656 77.507812 Z M 127.347656 77.507812 "/>
</g>
</svg>
