<?xml version="1.0" encoding="UTF-8"?>
<svg xmlns="http://www.w3.org/2000/svg" xmlns:xlink="http://www.w3.org/1999/xlink" width="100px" height="98px" viewBox="0 0 99 98" version="1.1">
<g id="surface1">
<path style=" stroke:none;fill-rule:nonzero;fill:rgb(0%,0%,0%);fill-opacity:1;" d="M 67.707031 3.933594 C 67.355469 4.214844 67.300781 4.464844 67.492188 4.785156 C 67.589844 4.929688 67.722656 5.066406 67.804688 5.097656 C 68.058594 5.179688 69.238281 6.390625 70.265625 7.617188 C 70.695312 8.132812 71.714844 10.1875 71.714844 10.539062 C 71.714844 10.734375 72.265625 11.753906 72.511719 12.035156 C 72.816406 12.363281 73.339844 12.386719 73.628906 12.082031 C 73.730469 11.96875 73.851562 11.878906 73.890625 11.878906 C 74.050781 11.878906 74.800781 11.320312 75.175781 10.925781 C 75.398438 10.683594 75.605469 10.363281 75.660156 10.171875 C 75.714844 9.984375 75.820312 9.695312 75.890625 9.535156 C 75.972656 9.359375 76.019531 9.007812 76.019531 8.679688 C 76.019531 8.1875 75.988281 8.066406 75.765625 7.699219 C 75.621094 7.464844 75.414062 7.183594 75.300781 7.070312 C 75.023438 6.785156 73.765625 5.941406 73.613281 5.941406 C 73.539062 5.941406 73.375 5.851562 73.246094 5.738281 C 73.109375 5.628906 72.941406 5.539062 72.855469 5.539062 C 72.769531 5.539062 72.585938 5.449219 72.449219 5.347656 C 72.304688 5.242188 72.050781 5.136719 71.882812 5.105469 C 71.714844 5.082031 71.484375 4.984375 71.375 4.898438 C 71.261719 4.808594 71.070312 4.734375 70.941406 4.734375 C 70.816406 4.734375 70.59375 4.648438 70.441406 4.535156 C 70.25 4.390625 70.066406 4.335938 69.8125 4.335938 C 69.554688 4.335938 69.40625 4.285156 69.277344 4.167969 C 69.101562 3.996094 68.726562 3.871094 68.210938 3.796875 C 68.003906 3.773438 67.875 3.804688 67.707031 3.933594 Z M 67.707031 3.933594 "/>
<path style=" stroke:none;fill-rule:nonzero;fill:rgb(0%,0%,0%);fill-opacity:1;" d="M 54.050781 3.988281 C 53.796875 4.085938 54.019531 5.433594 54.433594 6.300781 C 54.617188 6.703125 54.878906 7.449219 55.023438 8.011719 C 55.078125 8.246094 55.171875 8.484375 55.222656 8.550781 C 55.269531 8.613281 55.363281 8.878906 55.429688 9.152344 C 55.492188 9.425781 55.589844 9.738281 55.652344 9.859375 C 55.707031 9.976562 55.785156 10.242188 55.8125 10.460938 C 55.84375 10.667969 55.9375 10.988281 56.019531 11.183594 C 56.097656 11.367188 56.183594 11.679688 56.21875 11.878906 C 56.25 12.082031 56.328125 12.339844 56.382812 12.457031 C 56.527344 12.746094 56.527344 12.972656 56.367188 13.035156 C 56.296875 13.0625 49.179688 13.085938 40.550781 13.085938 L 24.863281 13.085938 L 24.058594 12.347656 C 23.617188 11.945312 22.8125 11.070312 22.273438 10.402344 C 21.101562 8.957031 20.527344 8.347656 20.34375 8.347656 C 20.296875 8.347656 20.160156 8.476562 20.039062 8.636719 C 19.800781 8.957031 19.792969 9.039062 20.023438 10.355469 C 20.183594 11.230469 20.320312 14.539062 20.320312 17.300781 C 20.320312 19.933594 20.128906 23.632812 19.960938 24.210938 C 19.898438 24.4375 19.808594 24.964844 19.761719 25.390625 C 19.714844 25.824219 19.601562 26.320312 19.523438 26.515625 C 19.433594 26.699219 19.363281 26.925781 19.363281 27.019531 C 19.363281 27.246094 18.902344 28.777344 18.71875 29.1875 C 18.636719 29.363281 18.566406 29.566406 18.566406 29.628906 C 18.566406 29.734375 18.207031 30.472656 17.824219 31.1875 C 17.753906 31.316406 17.691406 31.460938 17.683594 31.507812 C 17.683594 31.546875 17.554688 31.75 17.410156 31.949219 C 17.257812 32.148438 17.058594 32.457031 16.964844 32.625 C 16.878906 32.792969 16.765625 32.976562 16.726562 33.023438 C 16.628906 33.144531 15.929688 34.09375 15.777344 34.308594 C 15.515625 34.695312 13.523438 36.421875 12.71875 36.964844 C 11.992188 37.464844 11.929688 37.511719 11.609375 37.816406 C 11.441406 37.976562 11.101562 38.25 10.851562 38.417969 C 10.605469 38.589844 10.191406 38.894531 9.945312 39.09375 C 9.699219 39.292969 9.363281 39.542969 9.203125 39.65625 C 9.042969 39.769531 8.8125 39.9375 8.703125 40.042969 C 8.269531 40.402344 7.417969 41.019531 7.339844 41.019531 C 7.292969 41.019531 7.195312 41.109375 7.125 41.222656 C 7.050781 41.324219 6.941406 41.4375 6.859375 41.460938 C 6.789062 41.484375 6.542969 41.679688 6.3125 41.902344 C 5.898438 42.296875 5.898438 42.304688 5.898438 42.785156 C 5.898438 43.339844 6.046875 43.710938 6.304688 43.789062 C 6.398438 43.820312 6.566406 43.941406 6.667969 44.054688 L 6.859375 44.265625 L 7.25 44.046875 C 7.457031 43.925781 7.699219 43.832031 7.769531 43.832031 C 7.929688 43.832031 8.765625 43.292969 8.765625 43.195312 C 8.765625 43.15625 8.859375 43.101562 8.980469 43.066406 C 9.101562 43.042969 9.300781 42.929688 9.425781 42.820312 C 9.554688 42.714844 9.683594 42.625 9.722656 42.625 C 9.808594 42.625 10.320312 42.296875 10.597656 42.070312 C 10.910156 41.816406 11.394531 41.503906 11.484375 41.503906 C 11.523438 41.503906 11.648438 41.40625 11.769531 41.292969 C 11.882812 41.179688 12.046875 41.054688 12.144531 41.011719 C 12.320312 40.933594 12.726562 40.667969 13.308594 40.257812 C 13.492188 40.121094 13.730469 39.960938 13.824219 39.898438 C 13.921875 39.832031 14.175781 39.625 14.390625 39.445312 C 14.605469 39.261719 14.859375 39.09375 14.949219 39.0625 C 15.042969 39.03125 15.179688 38.941406 15.257812 38.851562 C 15.339844 38.765625 15.433594 38.691406 15.476562 38.691406 C 15.507812 38.691406 15.882812 38.402344 16.304688 38.050781 C 16.71875 37.695312 17.085938 37.410156 17.117188 37.410156 C 17.148438 37.410156 17.332031 37.253906 17.53125 37.0625 C 17.730469 36.878906 18.03125 36.605469 18.207031 36.453125 C 20.097656 34.855469 21.808594 32.871094 22.464844 31.523438 C 22.597656 31.25 22.742188 30.96875 22.78125 30.90625 C 22.828125 30.839844 22.910156 30.671875 22.972656 30.542969 C 23.027344 30.410156 23.117188 30.230469 23.164062 30.144531 C 23.378906 29.765625 23.746094 28.914062 23.746094 28.8125 C 23.746094 28.746094 23.816406 28.585938 23.90625 28.457031 C 23.992188 28.320312 24.066406 28.128906 24.066406 28.015625 C 24.066406 27.902344 24.121094 27.613281 24.183594 27.375 C 24.246094 27.132812 24.351562 26.722656 24.398438 26.464844 C 24.457031 26.167969 24.542969 25.96875 24.636719 25.921875 C 24.726562 25.871094 28.121094 25.855469 33.652344 25.863281 C 41.203125 25.890625 42.542969 25.90625 42.664062 26 C 42.78125 26.105469 42.789062 26.210938 42.75 26.722656 C 42.71875 27.0625 42.625 27.527344 42.542969 27.765625 C 42.464844 28.007812 42.367188 28.394531 42.34375 28.609375 C 42.320312 28.835938 42.207031 29.277344 42.105469 29.597656 C 42 29.910156 41.914062 30.238281 41.914062 30.320312 C 41.914062 30.398438 41.730469 30.824219 41.507812 31.265625 C 41.0625 32.167969 40.605469 32.671875 40.25 32.671875 C 40.128906 32.671875 39.914062 32.761719 39.761719 32.871094 L 39.492188 33.074219 L 34.058594 33.074219 C 29.394531 33.074219 28.613281 33.089844 28.527344 33.195312 C 28.367188 33.386719 28.34375 33.898438 28.472656 34.222656 C 28.621094 34.574219 28.847656 34.679688 29.445312 34.679688 C 29.792969 34.679688 29.898438 34.710938 30 34.855469 C 30.105469 35.007812 30.214844 35.046875 30.75 35.082031 C 31.21875 35.121094 31.425781 35.167969 31.59375 35.304688 C 31.753906 35.433594 31.921875 35.480469 32.230469 35.480469 C 32.566406 35.480469 32.671875 35.515625 32.8125 35.683594 C 32.949219 35.84375 33.0625 35.882812 33.355469 35.882812 C 33.636719 35.882812 33.785156 35.929688 33.960938 36.082031 C 34.097656 36.195312 34.296875 36.285156 34.433594 36.285156 C 34.582031 36.285156 34.726562 36.355469 34.839844 36.484375 C 34.933594 36.597656 35.09375 36.6875 35.210938 36.6875 C 35.46875 36.6875 36.191406 37.449219 36.464844 38.003906 C 36.566406 38.21875 36.742188 38.757812 36.855469 39.207031 C 37.101562 40.203125 37.21875 40.339844 37.808594 40.265625 C 38.074219 40.242188 38.257812 40.167969 38.34375 40.058594 C 38.414062 39.96875 38.589844 39.871094 38.742188 39.839844 C 38.886719 39.816406 39.109375 39.703125 39.230469 39.601562 C 39.355469 39.503906 39.523438 39.414062 39.601562 39.414062 C 39.683594 39.414062 39.777344 39.382812 39.800781 39.335938 C 39.875 39.222656 40.648438 38.714844 40.902344 38.621094 C 41.023438 38.570312 41.117188 38.5 41.117188 38.460938 C 41.117188 38.417969 41.230469 38.347656 41.355469 38.292969 C 41.492188 38.234375 41.628906 38.148438 41.660156 38.089844 C 41.691406 38.035156 41.808594 37.945312 41.921875 37.882812 C 42.042969 37.816406 42.320312 37.609375 42.550781 37.410156 C 43.03125 37 44.664062 35.34375 44.910156 35.015625 C 45.140625 34.710938 45.859375 33.28125 46.019531 32.792969 C 46.257812 32.070312 46.617188 30.722656 46.726562 30.101562 C 46.789062 29.765625 46.886719 29.390625 46.933594 29.261719 C 46.988281 29.125 47.0625 28.753906 47.101562 28.433594 C 47.140625 28.070312 47.238281 27.734375 47.347656 27.542969 C 47.554688 27.195312 48.160156 26.652344 48.34375 26.652344 C 48.410156 26.652344 48.566406 26.5625 48.703125 26.449219 C 48.832031 26.339844 49.023438 26.25 49.117188 26.25 C 49.214844 26.25 49.378906 26.160156 49.484375 26.050781 C 49.613281 25.914062 49.753906 25.847656 49.929688 25.847656 C 50.121094 25.847656 50.234375 25.785156 50.390625 25.574219 C 50.503906 25.421875 50.601562 25.277344 50.601562 25.253906 C 50.601562 25.003906 48.183594 22.5 47.15625 21.691406 C 46.988281 21.5625 46.671875 21.265625 46.441406 21.039062 C 45.8125 20.421875 45.277344 19.964844 44.417969 19.332031 L 44.121094 19.105469 L 43.691406 19.570312 C 43.453125 19.820312 43.203125 20.132812 43.132812 20.269531 C 43.0625 20.398438 42.957031 20.550781 42.902344 20.613281 C 42.839844 20.671875 42.789062 20.75 42.789062 20.785156 C 42.789062 20.816406 42.589844 21.089844 42.351562 21.394531 C 42.113281 21.699219 41.914062 21.988281 41.914062 22.027344 C 41.914062 22.066406 41.835938 22.179688 41.738281 22.285156 C 41.636719 22.378906 41.4375 22.589844 41.285156 22.742188 C 41.085938 22.949219 40.917969 23.03125 40.65625 23.070312 C 40.007812 23.160156 25.148438 23.128906 24.886719 23.039062 L 24.644531 22.949219 L 24.671875 21.648438 C 24.6875 20.9375 24.71875 20.09375 24.742188 19.773438 C 24.765625 19.449219 24.789062 18.488281 24.789062 17.628906 C 24.789062 16.167969 24.796875 16.054688 24.941406 15.976562 C 25.179688 15.847656 56.824219 15.863281 56.992188 15.992188 C 57.132812 16.109375 57.324219 16.640625 57.414062 17.179688 C 57.445312 17.378906 57.53125 17.667969 57.613281 17.820312 C 57.683594 17.972656 57.769531 18.238281 57.804688 18.414062 C 57.835938 18.582031 57.945312 18.890625 58.050781 19.097656 C 58.425781 19.851562 58.964844 21.082031 58.964844 21.183594 C 58.964844 21.226562 59.054688 21.359375 59.15625 21.488281 C 59.261719 21.609375 59.363281 21.792969 59.398438 21.898438 C 59.476562 22.15625 60.128906 23.328125 60.472656 23.824219 C 60.910156 24.476562 61.183594 24.902344 61.324219 25.167969 C 61.398438 25.292969 61.515625 25.464844 61.589844 25.542969 C 61.660156 25.617188 61.828125 25.855469 61.953125 26.089844 C 62.089844 26.320312 62.265625 26.59375 62.351562 26.699219 C 62.441406 26.804688 62.617188 27.027344 62.734375 27.195312 C 62.855469 27.359375 63.132812 27.726562 63.347656 28.007812 C 63.953125 28.785156 63.898438 29.132812 63.101562 29.667969 C 62.800781 29.871094 62.535156 30.070312 62.511719 30.109375 C 62.480469 30.152344 62.3125 30.265625 62.136719 30.367188 C 61.613281 30.65625 61.515625 30.714844 61.332031 30.875 C 61.046875 31.121094 60.6875 31.363281 60.503906 31.417969 C 60.417969 31.453125 60.242188 31.5625 60.128906 31.667969 C 60.011719 31.78125 59.835938 31.871094 59.730469 31.871094 C 59.636719 31.871094 59.46875 31.957031 59.363281 32.070312 C 59.261719 32.183594 59.09375 32.269531 58.992188 32.269531 C 58.886719 32.269531 58.726562 32.359375 58.640625 32.464844 C 58.542969 32.566406 58.359375 32.679688 58.21875 32.703125 C 58.082031 32.726562 57.90625 32.824219 57.828125 32.914062 C 57.746094 33.007812 57.597656 33.074219 57.453125 33.074219 C 57.292969 33.074219 57.148438 33.144531 57.039062 33.273438 C 56.917969 33.410156 56.78125 33.476562 56.609375 33.476562 C 56.425781 33.476562 56.320312 33.53125 56.226562 33.675781 C 56.128906 33.820312 56.027344 33.875 55.828125 33.875 C 55.667969 33.875 55.507812 33.941406 55.429688 34.027344 C 55.347656 34.109375 55.15625 34.207031 55 34.238281 C 54.839844 34.269531 54.625 34.367188 54.527344 34.453125 C 54.433594 34.550781 54.203125 34.640625 53.996094 34.65625 C 53.753906 34.6875 53.578125 34.757812 53.460938 34.886719 C 53.339844 35.015625 53.1875 35.082031 53 35.082031 C 52.839844 35.082031 52.566406 35.167969 52.390625 35.28125 C 52.21875 35.394531 51.96875 35.480469 51.84375 35.480469 C 51.707031 35.480469 51.523438 35.5625 51.421875 35.648438 C 51.300781 35.769531 51.101562 35.835938 50.824219 35.867188 C 50.519531 35.890625 50.359375 35.945312 50.273438 36.066406 C 50.167969 36.195312 50.019531 36.246094 49.652344 36.269531 C 49.285156 36.292969 49.132812 36.339844 49.054688 36.453125 C 48.980469 36.566406 48.796875 36.628906 48.425781 36.667969 C 48.097656 36.710938 47.835938 36.789062 47.738281 36.878906 C 47.628906 36.984375 47.40625 37.039062 47.023438 37.070312 C 46.566406 37.101562 46.433594 37.144531 46.289062 37.296875 C 46.183594 37.410156 46.019531 37.488281 45.898438 37.488281 C 45.769531 37.488281 45.621094 37.570312 45.515625 37.6875 C 45.421875 37.800781 45.308594 37.890625 45.261719 37.890625 C 45.15625 37.890625 44.863281 38.484375 44.863281 38.683594 C 44.863281 38.964844 45.109375 39.367188 45.445312 39.640625 L 45.769531 39.914062 L 46.710938 39.878906 C 47.523438 39.855469 47.667969 39.832031 47.828125 39.679688 C 47.96875 39.550781 48.144531 39.503906 48.632812 39.480469 C 49.101562 39.445312 49.292969 39.398438 49.429688 39.277344 C 49.554688 39.160156 49.746094 39.101562 50.183594 39.078125 C 50.632812 39.046875 50.808594 38.996094 50.949219 38.859375 C 51.085938 38.734375 51.230469 38.691406 51.570312 38.691406 C 51.9375 38.691406 52.066406 38.652344 52.257812 38.492188 C 52.441406 38.339844 52.582031 38.292969 52.878906 38.292969 C 53.140625 38.292969 53.363281 38.234375 53.546875 38.113281 C 53.699219 38.019531 54.019531 37.914062 54.257812 37.882812 C 54.496094 37.851562 54.792969 37.746094 54.910156 37.65625 C 55.039062 37.5625 55.253906 37.488281 55.40625 37.488281 C 55.5625 37.488281 55.777344 37.410156 55.9375 37.289062 C 56.121094 37.152344 56.3125 37.085938 56.535156 37.085938 C 56.78125 37.085938 56.910156 37.039062 57.046875 36.894531 C 57.15625 36.773438 57.339844 36.695312 57.570312 36.667969 C 57.761719 36.644531 58.019531 36.550781 58.136719 36.453125 C 58.257812 36.363281 58.457031 36.285156 58.59375 36.285156 C 58.734375 36.285156 58.910156 36.210938 59.015625 36.117188 C 59.117188 36.019531 59.363281 35.914062 59.570312 35.875 C 59.78125 35.835938 60.027344 35.730469 60.121094 35.640625 C 60.21875 35.554688 60.402344 35.480469 60.527344 35.480469 C 60.6875 35.480469 60.839844 35.410156 60.957031 35.28125 C 61.070312 35.160156 61.238281 35.082031 61.363281 35.082031 C 61.492188 35.082031 61.683594 34.992188 61.804688 34.878906 C 61.921875 34.765625 62.105469 34.679688 62.210938 34.679688 C 62.3125 34.679688 62.480469 34.589844 62.585938 34.476562 C 62.6875 34.367188 62.855469 34.277344 62.964844 34.277344 C 63.070312 34.277344 63.246094 34.1875 63.347656 34.078125 C 63.460938 33.964844 63.628906 33.875 63.746094 33.875 C 63.867188 33.875 64.035156 33.796875 64.144531 33.683594 C 64.242188 33.570312 64.425781 33.457031 64.550781 33.433594 C 64.679688 33.402344 64.800781 33.355469 64.824219 33.3125 C 64.902344 33.1875 65.546875 32.777344 65.761719 32.71875 C 65.996094 32.664062 66.011719 32.679688 67.46875 33.875 C 67.738281 34.09375 67.988281 34.277344 68.011719 34.277344 C 68.113281 34.277344 68.847656 34.785156 68.847656 34.855469 C 68.847656 34.894531 68.976562 34.984375 69.132812 35.046875 C 69.429688 35.167969 69.730469 35.371094 70.144531 35.699219 C 70.273438 35.804688 70.457031 35.882812 70.550781 35.882812 C 70.648438 35.882812 70.808594 35.972656 70.902344 36.082031 C 71 36.195312 71.160156 36.285156 71.261719 36.285156 C 71.367188 36.285156 71.53125 36.371094 71.636719 36.484375 C 71.738281 36.597656 71.898438 36.6875 71.996094 36.6875 C 72.089844 36.6875 72.28125 36.773438 72.433594 36.886719 C 72.585938 37 72.777344 37.085938 72.871094 37.085938 C 72.96875 37.085938 73.125 37.175781 73.230469 37.289062 C 73.347656 37.417969 73.5 37.488281 73.667969 37.488281 C 73.835938 37.488281 73.980469 37.554688 74.089844 37.6875 C 74.210938 37.824219 74.34375 37.890625 74.535156 37.890625 C 74.6875 37.890625 74.894531 37.960938 75.015625 38.058594 C 75.132812 38.15625 75.382812 38.242188 75.566406 38.273438 C 75.773438 38.300781 75.964844 38.386719 76.074219 38.507812 C 76.21875 38.652344 76.328125 38.691406 76.664062 38.691406 C 77 38.691406 77.109375 38.734375 77.261719 38.894531 C 77.421875 39.0625 77.515625 39.09375 77.914062 39.09375 C 78.273438 39.09375 78.417969 39.125 78.519531 39.246094 C 78.625 39.359375 78.824219 39.414062 79.269531 39.457031 C 79.722656 39.496094 79.929688 39.558594 80.058594 39.679688 C 80.203125 39.808594 80.378906 39.847656 80.933594 39.871094 C 81.515625 39.90625 81.683594 39.945312 81.921875 40.105469 C 82.179688 40.28125 82.28125 40.296875 83.125 40.296875 C 83.957031 40.296875 84.066406 40.3125 84.273438 40.476562 C 84.488281 40.644531 84.578125 40.660156 85.882812 40.667969 C 87.222656 40.675781 87.269531 40.683594 87.460938 40.867188 L 87.667969 41.0625 L 89.5 41.042969 L 91.335938 41.019531 L 91.765625 40.652344 C 92.273438 40.210938 92.386719 39.890625 92.339844 39.054688 C 92.304688 38.589844 92.242188 38.363281 91.964844 37.808594 C 91.773438 37.433594 91.519531 36.925781 91.398438 36.6875 C 91.277344 36.445312 91.152344 36.082031 91.121094 35.882812 C 91.085938 35.683594 90.992188 35.234375 90.894531 34.878906 C 90.738281 34.269531 90.730469 34.0625 90.730469 31.027344 C 90.738281 28.160156 90.753906 27.695312 90.902344 26.722656 C 91 26.121094 91.09375 25.199219 91.128906 24.667969 L 91.183594 23.714844 L 90.921875 23.417969 C 90.695312 23.160156 90.617188 23.121094 90.324219 23.121094 C 90.027344 23.121094 89.949219 23.160156 89.734375 23.398438 C 89.597656 23.5625 89.484375 23.777344 89.484375 23.882812 C 89.484375 23.996094 89.414062 24.292969 89.335938 24.539062 C 89.246094 24.796875 89.160156 25.167969 89.128906 25.367188 C 89.070312 25.734375 88.792969 26.699219 88.53125 27.414062 C 88.449219 27.628906 88.339844 27.96875 88.289062 28.152344 C 88.25 28.335938 88.15625 28.585938 88.089844 28.714844 C 88.027344 28.835938 87.972656 28.996094 87.972656 29.058594 C 87.972656 29.132812 87.898438 29.324219 87.8125 29.5 C 87.726562 29.667969 87.613281 29.933594 87.566406 30.09375 C 87.507812 30.253906 87.40625 30.472656 87.335938 30.585938 C 87.253906 30.695312 87.167969 30.875 87.136719 30.984375 C 87.101562 31.097656 86.992188 31.300781 86.886719 31.4375 C 86.785156 31.570312 86.695312 31.757812 86.695312 31.835938 C 86.695312 31.925781 86.648438 32.0625 86.585938 32.148438 C 86.53125 32.238281 86.449219 32.398438 86.417969 32.511719 C 86.210938 33.210938 85.523438 34.398438 85.101562 34.800781 L 84.855469 35.039062 L 82.894531 35.0625 C 80.960938 35.089844 80.925781 35.089844 80.6875 34.902344 C 80.480469 34.75 80.304688 34.71875 79.597656 34.679688 C 78.894531 34.640625 78.726562 34.605469 78.535156 34.453125 C 78.363281 34.316406 78.203125 34.277344 77.859375 34.277344 C 77.53125 34.277344 77.308594 34.222656 77.039062 34.078125 C 76.832031 33.964844 76.554688 33.875 76.417969 33.875 C 76.15625 33.875 75.898438 33.765625 75.714844 33.578125 C 75.660156 33.523438 75.46875 33.476562 75.308594 33.476562 C 75.117188 33.476562 74.917969 33.410156 74.792969 33.304688 C 74.671875 33.210938 74.425781 33.097656 74.25 33.058594 C 74.074219 33.015625 73.835938 32.914062 73.722656 32.832031 C 73.621094 32.746094 73.445312 32.671875 73.339844 32.671875 C 73.246094 32.671875 73.0625 32.589844 72.933594 32.488281 C 72.816406 32.382812 72.433594 32.160156 72.089844 31.980469 C 71.101562 31.484375 71.054688 31.453125 70.816406 31.25 C 70.6875 31.15625 70.550781 31.066406 70.503906 31.066406 C 70.464844 31.066406 70.320312 30.984375 70.195312 30.882812 C 70.074219 30.785156 69.789062 30.5625 69.566406 30.390625 C 69.109375 30.03125 69.023438 29.703125 69.347656 29.535156 C 69.445312 29.476562 69.722656 29.269531 69.964844 29.058594 C 70.203125 28.851562 70.457031 28.648438 70.527344 28.609375 C 70.933594 28.386719 73.628906 25.808594 73.628906 25.648438 C 73.628906 25.542969 74.027344 24.925781 74.472656 24.324219 C 75.046875 23.554688 75.421875 23.199219 75.75 23.101562 C 75.921875 23.0625 76.15625 22.949219 76.273438 22.871094 C 76.441406 22.75 76.625 22.71875 77.160156 22.71875 C 77.757812 22.71875 77.851562 22.742188 78.035156 22.910156 C 78.203125 23.0625 78.296875 23.09375 78.617188 23.0625 C 79.09375 23.023438 79.207031 22.933594 79.207031 22.558594 C 79.207031 22.339844 79.132812 22.164062 78.917969 21.890625 C 78.761719 21.683594 78.601562 21.515625 78.5625 21.515625 C 78.527344 21.515625 77.964844 21.0625 77.300781 20.511719 C 76.640625 19.957031 76.066406 19.507812 76.019531 19.507812 C 75.980469 19.507812 75.867188 19.425781 75.765625 19.320312 C 75.429688 18.984375 74.601562 18.304688 74.527344 18.304688 C 74.441406 18.304688 73.914062 17.917969 73.667969 17.660156 C 73.574219 17.570312 73.429688 17.5 73.332031 17.5 C 73.238281 17.5 73.054688 17.410156 72.925781 17.300781 C 72.792969 17.1875 72.632812 17.113281 72.578125 17.140625 C 72.417969 17.203125 72.113281 17.828125 72.113281 18.078125 C 72.113281 18.191406 72.027344 18.4375 71.921875 18.640625 C 71.820312 18.839844 71.707031 19.113281 71.675781 19.25 C 71.621094 19.53125 71.199219 20.4375 71.039062 20.628906 C 70.984375 20.695312 70.910156 20.878906 70.878906 21.03125 C 70.847656 21.183594 70.734375 21.417969 70.632812 21.539062 C 70.527344 21.667969 70.441406 21.828125 70.441406 21.90625 C 70.441406 21.988281 70.371094 22.117188 70.28125 22.195312 C 70.195312 22.277344 70.105469 22.414062 70.074219 22.492188 C 70.019531 22.667969 69.746094 23.109375 69.46875 23.472656 C 69.039062 24.035156 67.554688 25.445312 67.347656 25.496094 C 67.230469 25.527344 67.046875 25.601562 66.941406 25.664062 C 66.769531 25.777344 66.742188 25.769531 66.496094 25.527344 C 66.257812 25.292969 65.859375 24.796875 64.984375 23.65625 C 64.808594 23.425781 64.519531 23.023438 64.34375 22.757812 C 64.167969 22.492188 64.003906 22.261719 63.980469 22.234375 C 63.746094 22.050781 61.753906 18.34375 61.753906 18.09375 C 61.753906 18.039062 61.667969 17.820312 61.554688 17.613281 C 61.445312 17.402344 61.355469 17.148438 61.355469 17.042969 C 61.355469 16.945312 61.285156 16.722656 61.199219 16.5625 C 61 16.183594 61 16.078125 61.191406 15.976562 C 61.292969 15.917969 66.136719 15.894531 76.289062 15.894531 L 91.222656 15.894531 L 91.550781 15.589844 C 91.851562 15.308594 91.875 15.253906 91.875 14.875 C 91.875 14.578125 91.835938 14.441406 91.71875 14.328125 C 91.628906 14.25 91.558594 14.144531 91.558594 14.097656 C 91.558594 13.785156 88.746094 10.878906 87.054688 9.449219 C 86.53125 9 85.957031 8.484375 85.773438 8.292969 C 85.476562 7.980469 85.40625 7.945312 85.078125 7.945312 C 84.824219 7.945312 84.664062 7.996094 84.585938 8.082031 C 84.363281 8.339844 83.628906 9.273438 83.550781 9.398438 C 83.507812 9.472656 83.300781 9.761719 83.09375 10.042969 C 82.886719 10.324219 82.554688 10.796875 82.339844 11.09375 C 81.636719 12.089844 81.023438 12.621094 80.449219 12.730469 C 80.296875 12.753906 80.113281 12.851562 80.035156 12.933594 C 79.898438 13.078125 79.628906 13.085938 70.242188 13.085938 C 62.640625 13.085938 60.558594 13.0625 60.464844 12.980469 C 60.335938 12.890625 60.011719 11.785156 59.835938 10.835938 C 59.789062 10.597656 59.761719 10.019531 59.78125 9.554688 C 59.8125 8.804688 59.84375 8.660156 60.035156 8.324219 C 60.152344 8.117188 60.289062 7.945312 60.328125 7.945312 C 60.375 7.945312 60.496094 7.859375 60.601562 7.753906 C 60.703125 7.640625 60.863281 7.539062 60.941406 7.503906 C 61.03125 7.480469 61.183594 7.386719 61.285156 7.296875 C 61.382812 7.207031 61.554688 7.121094 61.667969 7.089844 C 61.769531 7.0625 61.988281 6.953125 62.136719 6.847656 C 62.289062 6.75 62.496094 6.664062 62.601562 6.664062 C 63 6.664062 63.207031 5.714844 62.855469 5.53125 C 62.75 5.476562 62.625 5.371094 62.566406 5.28125 C 62.480469 5.160156 62.351562 5.136719 61.835938 5.136719 C 61.285156 5.136719 61.183594 5.113281 60.972656 4.9375 C 60.757812 4.753906 60.671875 4.734375 59.976562 4.734375 C 59.285156 4.734375 59.199219 4.71875 58.984375 4.535156 C 58.757812 4.34375 58.6875 4.335938 57.796875 4.335938 C 56.878906 4.335938 56.839844 4.328125 56.65625 4.132812 C 56.472656 3.933594 56.449219 3.933594 55.308594 3.941406 C 54.671875 3.941406 54.097656 3.964844 54.050781 3.988281 Z M 54.050781 3.988281 "/>
<path style=" stroke:none;fill-rule:nonzero;fill:rgb(0%,0%,0%);fill-opacity:1;" d="M 25.59375 39.550781 C 25.242188 39.6875 25.148438 40.628906 25.441406 40.996094 C 25.539062 41.117188 25.683594 41.308594 25.761719 41.421875 C 26.472656 42.472656 26.566406 42.632812 26.8125 43.1875 C 26.878906 43.339844 26.980469 43.542969 27.027344 43.628906 C 27.242188 44 27.554688 44.695312 27.683594 45.089844 C 27.761719 45.324219 27.851562 45.53125 27.890625 45.554688 C 27.929688 45.582031 28 45.804688 28.050781 46.054688 C 28.105469 46.3125 28.199219 46.589844 28.265625 46.695312 C 28.375 46.863281 28.375 46.878906 28.167969 46.960938 C 28.03125 47.007812 26.015625 47.042969 22.558594 47.042969 L 17.15625 47.042969 L 16.925781 46.855469 C 16.71875 46.695312 16.597656 46.679688 15.507812 46.65625 C 14.359375 46.625 14.3125 46.617188 14.160156 46.429688 C 14.015625 46.246094 13.976562 46.238281 12.980469 46.238281 C 12.023438 46.238281 11.945312 46.230469 11.777344 46.054688 C 11.625 45.910156 11.492188 45.871094 10.996094 45.851562 C 10.160156 45.8125 10.113281 45.886719 10.4375 46.65625 C 10.75 47.394531 11.066406 48.085938 11.164062 48.246094 C 11.203125 48.308594 11.257812 48.421875 11.292969 48.484375 C 11.464844 48.910156 11.601562 49.167969 11.976562 49.777344 C 12.804688 51.152344 12.726562 51.085938 13.164062 50.8125 C 13.347656 50.703125 13.570312 50.652344 13.914062 50.652344 C 14.296875 50.652344 14.445312 50.613281 14.660156 50.453125 C 14.902344 50.277344 15.011719 50.253906 15.648438 50.253906 C 16.28125 50.246094 16.414062 50.21875 16.695312 50.050781 L 17.011719 49.851562 L 47.378906 49.851562 L 47.644531 49.578125 C 47.890625 49.320312 47.90625 49.273438 47.859375 48.953125 C 47.828125 48.734375 47.691406 48.4375 47.492188 48.164062 C 47.316406 47.925781 47.117188 47.609375 47.046875 47.484375 C 46.902344 47.226562 46.71875 46.992188 45.714844 45.757812 C 44.980469 44.851562 44.433594 44.222656 43.800781 43.574219 C 43.355469 43.117188 43.308594 43.089844 42.941406 43.082031 L 42.550781 43.074219 L 41.652344 44.015625 C 41.164062 44.535156 40.671875 45.058594 40.566406 45.179688 C 40.464844 45.300781 40.121094 45.667969 39.808594 46.003906 C 39.332031 46.519531 39.195312 46.625 38.917969 46.664062 C 38.742188 46.695312 38.527344 46.792969 38.449219 46.878906 C 38.304688 47.035156 38.207031 47.042969 35.046875 47.042969 C 32.886719 47.042969 31.730469 47.007812 31.625 46.953125 C 31.476562 46.871094 31.476562 46.855469 31.746094 46.550781 C 31.90625 46.382812 32.03125 46.207031 32.03125 46.167969 C 32.03125 46.125 32.113281 45.988281 32.214844 45.859375 C 32.40625 45.628906 32.628906 44.996094 32.71875 44.425781 C 32.757812 44.152344 32.726562 44.046875 32.527344 43.742188 C 32.097656 43.101562 30.265625 41.503906 29.960938 41.503906 C 29.921875 41.503906 29.777344 41.390625 29.644531 41.261719 C 29.507812 41.125 29.339844 41.019531 29.277344 41.019531 C 29.203125 41.019531 29.046875 40.933594 28.910156 40.820312 C 28.78125 40.707031 28.589844 40.621094 28.496094 40.621094 C 28.390625 40.621094 28.25 40.546875 28.175781 40.464844 C 28.097656 40.378906 27.898438 40.28125 27.722656 40.257812 C 27.539062 40.226562 27.378906 40.144531 27.332031 40.050781 C 27.285156 39.96875 27.195312 39.898438 27.140625 39.898438 C 27.085938 39.898438 26.902344 39.808594 26.742188 39.695312 C 26.464844 39.503906 25.890625 39.429688 25.59375 39.550781 Z M 25.59375 39.550781 "/>
<path style=" stroke:none;fill-rule:nonzero;fill:rgb(0%,0%,0%);fill-opacity:1;" d="M 51.730469 40.160156 L 51.476562 40.425781 L 51.554688 41.0625 C 51.59375 41.414062 51.667969 41.847656 51.714844 42.023438 C 51.90625 42.792969 52.082031 52.402344 51.921875 53.292969 C 51.835938 53.785156 51.699219 53.984375 51.15625 54.441406 C 51.023438 54.570312 50.855469 54.667969 50.808594 54.667969 C 50.640625 54.667969 50.359375 55.027344 50.359375 55.238281 C 50.359375 55.503906 50.601562 55.75 50.972656 55.871094 C 51.140625 55.929688 51.332031 56.015625 51.398438 56.070312 C 51.460938 56.128906 51.644531 56.234375 51.792969 56.3125 C 51.945312 56.394531 52.210938 56.523438 52.375 56.609375 C 52.535156 56.691406 52.671875 56.792969 52.671875 56.84375 C 52.671875 56.882812 52.824219 56.988281 53.015625 57.066406 C 53.386719 57.234375 53.90625 57.660156 54.679688 58.464844 C 55.132812 58.929688 55.238281 59.003906 55.414062 58.953125 C 55.523438 58.929688 55.675781 58.816406 55.746094 58.695312 C 55.820312 58.585938 56.128906 58.183594 56.433594 57.8125 C 56.742188 57.4375 57.023438 57.042969 57.0625 56.9375 C 57.09375 56.84375 57.214844 56.738281 57.308594 56.714844 C 57.414062 56.691406 62.195312 56.683594 67.929688 56.691406 L 78.371094 56.714844 L 78.371094 60.96875 L 67.007812 60.992188 L 55.652344 61.007812 L 55.460938 60.808594 C 55.355469 60.695312 55.230469 60.609375 55.179688 60.609375 C 55.125 60.609375 55.023438 60.535156 54.949219 60.457031 C 54.871094 60.367188 54.710938 60.277344 54.601562 60.246094 C 54.480469 60.222656 54.3125 60.125 54.226562 60.046875 C 54.136719 59.964844 53.976562 59.878906 53.867188 59.84375 C 53.753906 59.8125 53.570312 59.707031 53.453125 59.613281 C 53.332031 59.523438 53.125 59.363281 53 59.257812 C 52.871094 59.164062 52.726562 59.082031 52.679688 59.082031 C 52.632812 59.082031 52.472656 58.96875 52.328125 58.839844 C 52.042969 58.59375 51.738281 58.527344 51.570312 58.695312 C 51.4375 58.832031 51.453125 59.21875 51.644531 60.070312 C 51.730469 60.472656 51.84375 61.273438 51.890625 61.851562 C 51.9375 62.476562 52.003906 67.671875 52.035156 74.855469 C 52.074219 82.933594 52.121094 87.011719 52.183594 87.417969 C 52.265625 87.964844 52.574219 88.960938 52.757812 89.265625 C 52.800781 89.332031 52.894531 89.492188 52.972656 89.621094 C 53.222656 90.035156 53.460938 90.285156 53.953125 90.640625 C 54.226562 90.832031 54.527344 91.0625 54.617188 91.160156 C 54.71875 91.265625 54.941406 91.351562 55.171875 91.386719 C 55.398438 91.410156 55.644531 91.503906 55.738281 91.59375 C 55.90625 91.753906 56.035156 91.753906 69.683594 91.753906 L 83.460938 91.753906 L 83.636719 91.585938 C 83.789062 91.441406 83.941406 91.410156 84.433594 91.386719 C 84.894531 91.359375 85.085938 91.320312 85.214844 91.199219 C 85.308594 91.121094 85.507812 91.03125 85.667969 91 C 85.828125 90.976562 86.019531 90.878906 86.097656 90.792969 C 86.179688 90.703125 86.304688 90.628906 86.386719 90.628906 C 86.5625 90.628906 87.707031 89.59375 87.988281 89.1875 C 88.066406 89.074219 88.226562 88.839844 88.355469 88.664062 C 88.777344 88.0625 89.175781 87.128906 89.40625 86.230469 C 89.46875 85.984375 89.453125 85.957031 89.160156 85.773438 C 88.992188 85.660156 88.816406 85.507812 88.769531 85.421875 C 88.730469 85.332031 88.640625 85.210938 88.578125 85.15625 C 88.410156 84.988281 88.058594 84.199219 87.84375 83.503906 C 87.398438 82.113281 87.230469 78.347656 87.453125 74.777344 C 87.527344 73.5625 87.566406 72.480469 87.542969 72.367188 C 87.453125 72.007812 87.214844 71.847656 86.769531 71.847656 C 86.074219 71.847656 86.089844 71.820312 85.75 73.492188 C 85.660156 73.933594 85.566406 74.511719 85.535156 74.777344 C 85.507812 75.042969 85.421875 75.546875 85.34375 75.898438 C 85.261719 76.253906 85.175781 76.757812 85.144531 77.023438 C 85.109375 77.289062 85.023438 77.753906 84.9375 78.066406 C 84.855469 78.371094 84.785156 78.75 84.785156 78.910156 C 84.785156 79.0625 84.710938 79.425781 84.625 79.714844 C 84.539062 80.003906 84.425781 80.453125 84.386719 80.714844 C 84.339844 80.980469 84.234375 81.414062 84.148438 81.679688 C 84.066406 81.945312 83.980469 82.320312 83.957031 82.523438 C 83.933594 82.722656 83.84375 83.027344 83.75 83.207031 C 83.660156 83.375 83.589844 83.589844 83.589844 83.6875 C 83.589844 83.773438 83.5 84.023438 83.390625 84.25 C 83.285156 84.464844 83.191406 84.722656 83.191406 84.820312 C 83.183594 85.339844 82.058594 86.921875 81.597656 87.058594 C 81.484375 87.089844 81.308594 87.1875 81.207031 87.265625 C 81.023438 87.410156 80.617188 87.417969 69.515625 87.417969 L 58.027344 87.417969 L 57.796875 87.234375 C 57.675781 87.128906 57.476562 86.996094 57.363281 86.921875 C 56.964844 86.664062 56.679688 86.078125 56.535156 85.21875 C 56.410156 84.457031 56.410156 84.417969 56.542969 84.3125 C 56.664062 84.226562 58.941406 84.207031 68.894531 84.207031 L 81.101562 84.207031 L 81.359375 83.910156 C 81.597656 83.640625 81.613281 83.589844 81.582031 83.148438 C 81.542969 82.585938 81.222656 82.074219 80.800781 81.871094 C 80.648438 81.800781 80.449219 81.664062 80.371094 81.566406 C 80.28125 81.472656 80.15625 81.398438 80.074219 81.398438 C 79.996094 81.398438 79.828125 81.3125 79.699219 81.199219 C 79.566406 81.085938 79.429688 80.996094 79.390625 80.996094 C 79.34375 80.996094 79.246094 80.925781 79.175781 80.84375 C 79.09375 80.757812 78.933594 80.660156 78.808594 80.636719 C 78.6875 80.613281 78.511719 80.5 78.417969 80.394531 C 78.328125 80.285156 78.164062 80.195312 78.058594 80.195312 C 77.957031 80.195312 77.820312 80.140625 77.765625 80.066406 C 77.699219 79.996094 77.507812 79.867188 77.324219 79.785156 C 77.140625 79.714844 76.96875 79.609375 76.941406 79.570312 C 76.917969 79.519531 76.761719 79.441406 76.59375 79.382812 C 76.433594 79.335938 76.210938 79.222656 76.105469 79.144531 C 76.003906 79.054688 75.859375 78.992188 75.789062 78.992188 C 75.707031 78.992188 75.53125 78.902344 75.382812 78.789062 C 74.925781 78.453125 74.742188 78.507812 73.875 79.246094 C 73.453125 79.609375 72.96875 80.050781 72.792969 80.226562 C 72.617188 80.410156 72.335938 80.660156 72.171875 80.796875 C 72.003906 80.925781 71.796875 81.117188 71.699219 81.222656 L 71.523438 81.398438 L 64.128906 81.398438 C 59.171875 81.398438 56.671875 81.375 56.566406 81.320312 C 56.425781 81.238281 56.417969 81.132812 56.417969 79.601562 L 56.417969 77.972656 L 56.617188 77.882812 C 56.765625 77.8125 59.929688 77.785156 69 77.785156 C 80.585938 77.785156 81.191406 77.777344 81.359375 77.640625 C 81.476562 77.546875 81.542969 77.386719 81.566406 77.144531 C 81.597656 76.839844 81.550781 76.695312 81.300781 76.230469 C 81 75.667969 80.59375 75.28125 80.042969 75.035156 C 79.914062 74.96875 79.757812 74.863281 79.691406 74.792969 C 79.636719 74.710938 79.542969 74.65625 79.492188 74.65625 C 79.4375 74.65625 79.308594 74.566406 79.207031 74.457031 C 79.101562 74.34375 78.933594 74.253906 78.832031 74.253906 C 78.726562 74.253906 78.5625 74.167969 78.464844 74.070312 C 78.371094 73.964844 78.1875 73.851562 78.058594 73.820312 C 77.929688 73.789062 77.714844 73.675781 77.589844 73.5625 C 77.460938 73.460938 77.285156 73.371094 77.183594 73.371094 C 77.085938 73.371094 76.953125 73.300781 76.878906 73.210938 C 76.800781 73.121094 76.640625 73.035156 76.519531 73.003906 C 76.402344 72.96875 76.226562 72.882812 76.136719 72.800781 C 76.050781 72.730469 75.875 72.632812 75.738281 72.601562 C 75.613281 72.570312 75.414062 72.480469 75.308594 72.390625 C 75.207031 72.3125 75 72.246094 74.847656 72.246094 C 74.609375 72.246094 74.410156 72.390625 73.246094 73.453125 C 72.511719 74.109375 71.835938 74.726562 71.738281 74.824219 L 71.566406 74.992188 L 64.097656 74.976562 C 58.863281 74.976562 56.59375 74.945312 56.519531 74.878906 C 56.367188 74.761719 56.367188 71.660156 56.519531 71.535156 C 56.601562 71.46875 60.066406 71.445312 68.800781 71.429688 C 80.746094 71.40625 80.976562 71.40625 81.085938 71.253906 C 81.246094 71.027344 81.230469 70.136719 81.070312 69.792969 C 81 69.640625 80.832031 69.453125 80.710938 69.390625 C 80.585938 69.324219 80.480469 69.238281 80.480469 69.195312 C 80.480469 69.15625 80.417969 69.109375 80.328125 69.078125 C 80.25 69.054688 80.089844 68.949219 79.980469 68.851562 C 79.867188 68.753906 79.597656 68.5625 79.367188 68.433594 C 79.132812 68.296875 78.847656 68.113281 78.726562 68.015625 C 78.609375 67.914062 78.433594 67.832031 78.355469 67.832031 C 78.265625 67.832031 78.097656 67.746094 77.980469 67.632812 C 77.859375 67.519531 77.699219 67.429688 77.621094 67.429688 C 77.539062 67.429688 77.382812 67.34375 77.261719 67.230469 C 77.140625 67.117188 76.984375 67.03125 76.894531 67.03125 C 76.816406 67.03125 76.648438 66.941406 76.519531 66.835938 C 76.402344 66.734375 76.179688 66.621094 76.035156 66.589844 C 75.890625 66.554688 75.75 66.484375 75.722656 66.429688 C 75.707031 66.363281 75.558594 66.273438 75.398438 66.21875 C 75.230469 66.164062 75.015625 66.058594 74.910156 65.976562 C 74.496094 65.648438 74.320312 65.738281 73.03125 66.988281 C 72.378906 67.632812 71.8125 68.152344 71.789062 68.152344 C 71.765625 68.152344 71.605469 68.257812 71.4375 68.394531 L 71.132812 68.636719 L 63.980469 68.636719 C 58.71875 68.636719 56.765625 68.609375 56.617188 68.539062 L 56.417969 68.449219 L 56.417969 64.378906 L 56.625 64.300781 C 56.949219 64.171875 78.210938 64.195312 78.3125 64.316406 C 78.355469 64.371094 78.410156 64.863281 78.417969 65.398438 C 78.441406 66.019531 78.480469 66.410156 78.546875 66.476562 C 78.59375 66.523438 78.816406 66.589844 79.03125 66.613281 C 79.390625 66.644531 79.453125 66.621094 79.613281 66.4375 C 79.730469 66.292969 79.875 66.226562 80.042969 66.226562 C 80.195312 66.226562 80.355469 66.164062 80.433594 66.074219 C 80.511719 65.984375 80.6875 65.890625 80.832031 65.859375 C 80.96875 65.832031 81.152344 65.746094 81.238281 65.664062 C 81.324219 65.59375 81.515625 65.488281 81.660156 65.441406 C 81.804688 65.390625 82.019531 65.28125 82.128906 65.183594 C 82.242188 65.09375 82.394531 65.023438 82.457031 65.023438 C 82.527344 65.023438 82.726562 64.871094 82.894531 64.6875 L 83.214844 64.339844 L 83.160156 63.609375 C 83.136719 63.207031 83.046875 62.695312 82.976562 62.484375 C 82.878906 62.179688 82.839844 61.660156 82.816406 60.214844 C 82.769531 57.902344 82.792969 57.6875 83.136719 57.5 C 83.277344 57.429688 83.582031 57.210938 83.8125 57.019531 C 84.050781 56.835938 84.304688 56.675781 84.386719 56.675781 C 84.464844 56.675781 84.679688 56.53125 84.863281 56.359375 C 85.269531 55.984375 85.253906 55.886719 84.695312 55.214844 C 84.378906 54.828125 82.179688 52.605469 81.558594 52.042969 C 81.046875 51.578125 80.496094 51.152344 80.355469 51.101562 C 80.226562 51.0625 80.058594 51.175781 79.566406 51.65625 C 79.222656 51.984375 78.902344 52.257812 78.863281 52.257812 C 78.824219 52.257812 78.480469 52.53125 78.089844 52.859375 C 77.699219 53.191406 77.332031 53.464844 77.277344 53.464844 C 77.214844 53.464844 77.046875 53.550781 76.894531 53.664062 L 76.625 53.863281 L 66.726562 53.863281 C 59.382812 53.863281 56.765625 53.839844 56.617188 53.769531 L 56.417969 53.679688 L 56.417969 51.851562 C 56.417969 50.476562 56.441406 50.003906 56.519531 49.957031 C 56.566406 49.921875 63.316406 49.875 71.5 49.851562 L 86.394531 49.8125 L 86.585938 49.585938 C 86.761719 49.386719 86.777344 49.289062 86.777344 48.628906 L 86.777344 47.898438 L 86.203125 47.320312 C 85.613281 46.734375 85.070312 46.238281 83.957031 45.234375 C 83.613281 44.921875 83.230469 44.585938 83.101562 44.472656 C 82.984375 44.359375 82.753906 44.183594 82.59375 44.070312 C 82.257812 43.847656 81.980469 43.613281 81.492188 43.15625 C 81.167969 42.859375 80.695312 42.515625 80.371094 42.335938 C 80.128906 42.199219 79.699219 42.289062 79.644531 42.472656 C 79.613281 42.554688 79.550781 42.675781 79.492188 42.722656 C 79.445312 42.777344 79.175781 43.171875 78.902344 43.589844 C 78.640625 44.007812 78.335938 44.457031 78.25 44.59375 C 77.730469 45.332031 77.359375 45.917969 77.222656 46.199219 C 77.140625 46.375 76.917969 46.640625 76.726562 46.777344 L 76.386719 47.042969 L 66.542969 47.042969 C 60.773438 47.042969 56.648438 47.007812 56.582031 46.96875 C 56.480469 46.90625 56.480469 46.808594 56.566406 46.34375 C 56.703125 45.605469 57.039062 44.90625 57.484375 44.464844 C 57.683594 44.253906 57.851562 44.054688 57.851562 44.007812 C 57.851562 43.964844 57.898438 43.886719 57.960938 43.839844 C 58.027344 43.78125 58.105469 43.636719 58.128906 43.507812 C 58.203125 43.164062 57.746094 42.699219 56.972656 42.335938 C 56.824219 42.265625 56.625 42.144531 56.535156 42.0625 C 56.449219 41.992188 56.273438 41.894531 56.136719 41.871094 C 56.011719 41.839844 55.835938 41.742188 55.753906 41.65625 C 55.675781 41.574219 55.539062 41.503906 55.453125 41.503906 C 55.363281 41.503906 55.199219 41.40625 55.085938 41.292969 C 54.972656 41.179688 54.757812 41.070312 54.609375 41.042969 C 54.464844 41.019531 54.304688 40.933594 54.257812 40.851562 C 54.21875 40.773438 54.058594 40.683594 53.914062 40.652344 C 53.761719 40.628906 53.578125 40.53125 53.5 40.449219 C 53.421875 40.363281 53.222656 40.273438 53.054688 40.25 C 52.871094 40.21875 52.710938 40.136719 52.664062 40.050781 C 52.527344 39.785156 52.035156 39.847656 51.730469 40.160156 Z M 51.730469 40.160156 "/>
<path style=" stroke:none;fill-rule:nonzero;fill:rgb(0%,0%,0%);fill-opacity:1;" d="M 34.472656 50.742188 C 34.449219 50.847656 34.390625 51.183594 34.351562 51.496094 C 34.160156 52.851562 33.875 54.492188 33.761719 54.789062 C 33.699219 54.964844 33.625 55.300781 33.59375 55.542969 C 33.5625 55.785156 33.492188 56.070312 33.425781 56.183594 C 33.371094 56.304688 33.285156 56.609375 33.238281 56.867188 C 33.1875 57.132812 33.101562 57.421875 33.046875 57.507812 C 32.980469 57.605469 32.910156 57.78125 32.878906 57.917969 C 32.773438 58.328125 32.503906 58.90625 32.382812 58.953125 C 32.222656 59.019531 24.246094 59.027344 24.144531 58.960938 C 24.023438 58.890625 24.046875 58.707031 24.183594 58.65625 C 24.28125 58.617188 24.496094 58.328125 24.796875 57.847656 C 25.011719 57.492188 25.261719 56.785156 25.261719 56.515625 C 25.261719 56.160156 25.027344 55.695312 24.582031 55.117188 C 24.230469 54.667969 23.410156 53.855469 23.070312 53.625 C 22.902344 53.511719 22.695312 53.351562 22.597656 53.261719 C 22.511719 53.167969 22.34375 53.039062 22.230469 52.957031 C 22.121094 52.886719 21.859375 52.699219 21.632812 52.539062 C 21.417969 52.386719 21.195312 52.257812 21.148438 52.257812 C 21.101562 52.257812 20.988281 52.171875 20.894531 52.058594 C 20.796875 51.945312 20.644531 51.859375 20.558594 51.859375 C 20.472656 51.859375 20.335938 51.792969 20.253906 51.714844 C 20.175781 51.632812 19.882812 51.441406 19.59375 51.28125 C 19.316406 51.121094 19.011719 50.910156 18.933594 50.820312 C 18.703125 50.566406 18.390625 50.605469 18.046875 50.949219 C 17.769531 51.230469 17.753906 51.273438 17.785156 51.632812 C 17.808594 51.882812 17.890625 52.089844 18 52.203125 C 18.089844 52.308594 18.167969 52.417969 18.167969 52.453125 C 18.167969 52.492188 18.246094 52.605469 18.351562 52.699219 C 18.695312 53.046875 18.886719 53.285156 18.886719 53.367188 C 18.886719 53.40625 18.972656 53.566406 19.078125 53.71875 C 19.179688 53.878906 19.308594 54.128906 19.355469 54.289062 C 19.410156 54.441406 19.5 54.621094 19.5625 54.667969 C 19.617188 54.714844 19.699219 54.859375 19.722656 54.988281 C 19.753906 55.117188 19.832031 55.300781 19.914062 55.40625 C 19.992188 55.511719 20.113281 55.75 20.183594 55.953125 C 20.246094 56.152344 20.382812 56.53125 20.472656 56.792969 C 20.566406 57.058594 20.695312 57.371094 20.757812 57.492188 C 20.820312 57.605469 20.925781 57.957031 20.988281 58.28125 C 21.085938 58.808594 21.085938 58.859375 20.949219 58.921875 C 20.871094 58.96875 19.691406 59.003906 18.144531 59.003906 L 15.476562 59.003906 L 15.363281 58.816406 C 15.242188 58.648438 15.179688 58.640625 14.015625 58.617188 C 12.878906 58.59375 12.78125 58.578125 12.652344 58.417969 C 12.535156 58.265625 12.4375 58.246094 11.464844 58.222656 C 10.511719 58.207031 10.398438 58.191406 10.230469 58.03125 C 10.070312 57.886719 9.953125 57.855469 9.441406 57.855469 C 8.695312 57.855469 8.597656 57.925781 8.820312 58.335938 C 8.910156 58.503906 9.011719 58.753906 9.042969 58.898438 C 9.066406 59.035156 9.148438 59.195312 9.203125 59.242188 C 9.265625 59.292969 9.355469 59.46875 9.410156 59.628906 C 9.457031 59.789062 9.570312 60.015625 9.640625 60.125 C 9.722656 60.238281 9.808594 60.414062 9.839844 60.527344 C 9.871094 60.640625 9.960938 60.816406 10.03125 60.929688 C 10.105469 61.042969 10.238281 61.273438 10.320312 61.441406 C 10.78125 62.367188 11.148438 62.9375 11.285156 62.9375 C 11.347656 62.9375 11.53125 62.863281 11.691406 62.773438 C 11.890625 62.671875 12.144531 62.613281 12.4375 62.613281 C 12.78125 62.613281 12.941406 62.574219 13.117188 62.429688 C 13.308594 62.277344 13.464844 62.246094 14.222656 62.214844 C 14.980469 62.179688 15.140625 62.148438 15.332031 61.988281 L 15.5625 61.8125 L 48.972656 61.8125 L 49.1875 61.484375 C 49.429688 61.121094 49.460938 60.839844 49.292969 60.6875 C 49.230469 60.640625 49.132812 60.464844 49.078125 60.304688 C 49.023438 60.140625 48.957031 59.988281 48.933594 59.964844 C 48.902344 59.941406 48.679688 59.652344 48.433594 59.324219 C 48.019531 58.761719 47.476562 58.078125 46.671875 57.117188 C 46.488281 56.898438 46.050781 56.402344 45.699219 56.023438 C 45.347656 55.640625 45.015625 55.269531 44.957031 55.195312 C 44.886719 55.109375 44.726562 55.070312 44.472656 55.070312 L 44.082031 55.070312 L 42.382812 56.835938 C 40.917969 58.367188 40.65625 58.601562 40.449219 58.601562 C 40.304688 58.601562 40.128906 58.679688 40 58.800781 L 39.800781 58.996094 L 37.609375 59.003906 C 36.40625 59.011719 35.300781 59.011719 35.15625 59.011719 C 34.765625 59.003906 34.75 58.800781 35.101562 58.496094 C 35.261719 58.351562 35.992188 57.644531 36.726562 56.914062 C 38.734375 54.925781 39.140625 54.546875 39.5625 54.347656 C 39.777344 54.242188 40.007812 54.097656 40.082031 54.023438 C 40.160156 53.945312 40.382812 53.863281 40.582031 53.832031 C 40.789062 53.800781 40.972656 53.746094 40.996094 53.703125 C 41.070312 53.582031 40.824219 53.261719 40.425781 52.949219 C 40.136719 52.726562 39.984375 52.660156 39.722656 52.660156 C 39.476562 52.660156 39.347656 52.613281 39.210938 52.46875 C 39.070312 52.316406 38.933594 52.265625 38.503906 52.242188 C 38.113281 52.226562 37.898438 52.171875 37.714844 52.035156 C 37.570312 51.9375 37.347656 51.859375 37.195312 51.859375 C 37.019531 51.859375 36.863281 51.800781 36.78125 51.707031 C 36.703125 51.617188 36.527344 51.519531 36.382812 51.488281 C 36.25 51.457031 36.035156 51.351562 35.914062 51.246094 C 35.785156 51.144531 35.625 51.054688 35.554688 51.054688 C 35.484375 51.054688 35.332031 50.964844 35.21875 50.855469 C 35.109375 50.75 34.902344 50.636719 34.765625 50.605469 C 34.542969 50.566406 34.503906 50.582031 34.472656 50.742188 Z M 34.472656 50.742188 "/>
<path style=" stroke:none;fill-rule:nonzero;fill:rgb(0%,0%,0%);fill-opacity:1;" d="M 41.394531 63.386719 C 41.269531 63.546875 41.085938 63.746094 40.996094 63.84375 C 40.902344 63.9375 40.597656 64.292969 40.328125 64.621094 C 40.050781 64.949219 39.601562 65.464844 39.332031 65.753906 C 39.0625 66.042969 38.78125 66.363281 38.710938 66.453125 L 38.566406 66.628906 L 19.1875 66.628906 L 18.933594 66.429688 C 17.875 65.570312 17.546875 65.304688 17.410156 65.167969 C 17.324219 65.085938 16.964844 64.75 16.613281 64.414062 C 15.992188 63.828125 15.96875 63.8125 15.625 63.84375 C 15.035156 63.90625 15.019531 63.957031 15.042969 65.488281 C 15.050781 66.226562 15.101562 67.292969 15.140625 67.871094 C 15.25 69.316406 15.242188 89.464844 15.140625 90.253906 C 15.09375 90.582031 15.042969 91.585938 15.035156 92.484375 L 15.019531 94.121094 L 15.683594 94.148438 C 16.296875 94.171875 16.359375 94.15625 16.582031 93.960938 C 16.71875 93.851562 16.925781 93.761719 17.042969 93.761719 C 17.164062 93.761719 17.332031 93.6875 17.402344 93.609375 C 17.492188 93.511719 17.707031 93.433594 17.953125 93.398438 C 18.214844 93.359375 18.4375 93.28125 18.566406 93.160156 C 18.679688 93.054688 18.878906 92.957031 19.003906 92.941406 C 19.203125 92.925781 19.285156 92.847656 19.46875 92.484375 L 19.683594 92.042969 L 19.683594 87.171875 C 19.683594 82.804688 19.699219 82.296875 19.808594 82.25 C 20.039062 82.160156 38.941406 82.195312 39.140625 82.28125 C 39.324219 82.371094 39.324219 82.394531 39.308594 83.550781 C 39.292969 84.820312 39.238281 85.46875 39.125 85.644531 C 39.085938 85.71875 38.878906 85.773438 38.574219 85.796875 C 38.175781 85.832031 38.074219 85.863281 37.96875 86.023438 L 37.851562 86.214844 L 34.207031 86.214844 L 33.992188 86.015625 L 33.777344 85.8125 L 29.410156 85.8125 C 26.128906 85.8125 25.027344 85.839844 24.957031 85.910156 C 24.902344 85.964844 24.863281 86.214844 24.863281 86.464844 C 24.863281 87.097656 25.054688 87.324219 25.660156 87.410156 C 25.898438 87.445312 26.222656 87.546875 26.375 87.644531 C 26.582031 87.773438 26.78125 87.820312 27.140625 87.820312 C 27.523438 87.820312 27.675781 87.859375 27.851562 87.996094 C 28.007812 88.125 28.214844 88.183594 28.558594 88.207031 C 28.902344 88.230469 29.101562 88.285156 29.21875 88.398438 C 29.332031 88.503906 29.546875 88.574219 29.875 88.601562 C 30.25 88.632812 30.390625 88.6875 30.480469 88.808594 C 30.558594 88.929688 30.710938 88.976562 31.027344 89.007812 C 31.355469 89.035156 31.507812 89.089844 31.644531 89.234375 C 31.761719 89.363281 31.914062 89.425781 32.082031 89.425781 C 32.265625 89.425781 32.375 89.476562 32.429688 89.585938 C 32.488281 89.683594 32.628906 89.765625 32.839844 89.796875 C 33.011719 89.828125 33.195312 89.910156 33.253906 89.988281 C 33.308594 90.0625 33.460938 90.171875 33.585938 90.246094 C 33.722656 90.316406 33.945312 90.429688 34.082031 90.503906 C 34.222656 90.582031 34.367188 90.695312 34.398438 90.75 C 34.441406 90.816406 34.613281 90.96875 34.804688 91.097656 C 34.996094 91.214844 35.515625 91.691406 35.96875 92.140625 L 36.789062 92.957031 L 37.492188 92.957031 C 38.136719 92.957031 38.207031 92.941406 38.375 92.757812 C 38.503906 92.613281 38.648438 92.558594 38.839844 92.558594 C 39.039062 92.558594 39.140625 92.507812 39.203125 92.40625 C 39.246094 92.316406 39.386719 92.226562 39.515625 92.195312 C 39.644531 92.171875 39.851562 92.058594 39.976562 91.945312 C 40.097656 91.84375 40.304688 91.675781 40.425781 91.578125 C 41.667969 90.582031 42.695312 89.28125 43.117188 88.175781 C 43.792969 86.390625 43.769531 86.722656 43.828125 78.710938 C 43.859375 72.367188 43.882812 71.613281 44 71.363281 C 44.183594 70.972656 44.496094 70.667969 44.78125 70.601562 C 44.910156 70.570312 45.054688 70.480469 45.101562 70.410156 C 45.140625 70.320312 45.308594 70.242188 45.476562 70.214844 C 45.652344 70.183594 45.820312 70.097656 45.875 70.007812 C 45.929688 69.917969 46.105469 69.832031 46.289062 69.800781 C 46.472656 69.765625 46.617188 69.710938 46.617188 69.671875 C 46.617188 69.628906 46.734375 69.519531 46.886719 69.429688 C 47.300781 69.1875 47.300781 68.699219 46.886719 68.234375 C 46.832031 68.167969 46.664062 67.976562 46.519531 67.808594 C 45.523438 66.636719 42.71875 63.738281 42.226562 63.371094 C 42.019531 63.214844 41.800781 63.097656 41.746094 63.097656 C 41.683594 63.097656 41.53125 63.226562 41.394531 63.386719 Z M 39.179688 69.902344 C 39.246094 69.945312 39.277344 70.410156 39.292969 71.40625 L 39.308594 72.851562 L 39.117188 72.945312 C 38.863281 73.082031 20.082031 73.097656 19.832031 72.96875 C 19.691406 72.890625 19.683594 72.785156 19.683594 71.40625 C 19.683594 70.304688 19.707031 69.917969 19.785156 69.894531 C 19.945312 69.824219 39.078125 69.839844 39.179688 69.902344 Z M 39.125 75.882812 L 39.324219 75.988281 L 39.347656 77.585938 C 39.363281 79.023438 39.347656 79.199219 39.230469 79.289062 C 39.125 79.367188 37.054688 79.390625 29.515625 79.390625 C 24.246094 79.390625 19.882812 79.367188 19.808594 79.34375 C 19.699219 79.304688 19.683594 79.070312 19.683594 77.617188 C 19.683594 76.109375 19.699219 75.941406 19.824219 75.867188 C 20.046875 75.738281 38.871094 75.753906 39.125 75.882812 Z M 39.125 75.882812 "/>
</g>
</svg>
